<svg width="1754" height="1209" xmlns="http://www.w3.org/2000/svg" xmlns:xlink="http://www.w3.org/1999/xlink" xml:space="preserve" overflow="hidden"><defs><clipPath id="clip0"><rect x="2482" y="29" width="1754" height="1209"/></clipPath></defs><g clip-path="url(#clip0)" transform="translate(-2482 -29)"><rect x="2572" y="186" width="1626" height="934" fill="#FFFFFF"/><path d="M2684.38 704.674C2676.43 704.674 2669.21 706.872 2662.72 711.267 2654.35 717.127 2650.16 725.498 2650.16 736.381 2650.16 745.59 2653.41 756.473 2659.9 769.031 2672.45 793.936 2693.07 813.819 2721.74 828.678 2760.45 848.979 2810.16 859.13 2870.85 859.13 2903.5 859.13 2919.82 846.468 2919.82 821.144 2919.82 794.564 2904.23 781.274 2873.05 781.274 2834.54 781.274 2803.46 778.135 2779.81 771.856 2748.63 763.485 2726.97 747.997 2714.83 725.394 2707.3 711.581 2697.15 704.674 2684.38 704.674ZM3388.07 531.382C3363.79 531.382 3322.46 536.929 3264.07 548.021 3204.85 559.741 3168.01 566.543 3153.57 568.427 3127.62 571.566 3114.65 582.449 3114.65 601.076 3114.65 613.215 3118.31 622.633 3125.64 629.33 3131.29 634.771 3138.51 637.492 3147.3 637.492 3156.29 637.492 3196.16 629.33 3266.9 613.005 3320.68 600.657 3359.92 594.483 3384.62 594.483 3404.29 594.483 3419.78 599.611 3431.08 609.866 3442.59 620.331 3448.34 634.771 3448.34 653.189 3448.34 701.325 3412.77 737.114 3341.61 760.554 3325.08 765.996 3315.24 769.763 3312.1 771.856 3304.36 777.298 3300.49 784.414 3300.49 793.204 3300.49 810.365 3309.8 818.946 3328.43 818.946 3331.78 818.946 3336.8 818.318 3343.49 817.063 3370.28 812.249 3394.98 804.924 3417.58 795.087 3487.48 764.949 3522.43 716.708 3522.43 650.364 3522.43 609.971 3506.21 578.577 3473.77 556.183 3449.7 539.649 3421.14 531.382 3388.07 531.382ZM3960.07 425.272C3929.72 425.272 3874.16 432.598 3793.38 447.248 3722.85 459.805 3674.82 468.177 3649.29 472.363 3636.94 474.456 3628.36 476.653 3623.55 478.956 3610.15 485.443 3603.46 496.745 3603.46 512.86 3603.46 518.93 3604.29 524.371 3605.97 529.185 3611.41 545.3 3622.29 553.358 3638.61 553.358 3642.8 553.358 3666.87 548.544 3710.82 538.917L3792.43 521.965C3869.03 505.849 3922.81 497.792 3953.79 497.792 3978.06 497.792 3997.95 503.966 4013.43 516.314 4032.27 531.173 4041.69 552.521 4041.69 580.356 4041.69 647.329 3993.24 695.675 3896.34 725.394 3875.83 731.673 3864.01 735.754 3860.87 737.637 3851.66 743.497 3847.06 751.241 3847.06 760.868 3847.06 765.892 3848.31 771.019 3850.82 776.251 3855.85 787.134 3865.58 792.576 3880.02 792.576 3887.76 792.576 3900 790.692 3916.75 786.925 3978.9 773.321 4027.98 750.299 4063.97 717.859 4106.04 679.978 4127.07 633.202 4127.07 577.531 4127.07 526.464 4106.56 486.385 4065.54 457.294 4035.62 435.947 4000.46 425.272 3960.07 425.272ZM2767.88 304.722C2759.72 304.722 2751.66 306.71 2743.71 310.687 2731.57 316.965 2725.5 325.755 2725.5 337.057 2725.5 342.08 2727.18 348.359 2730.53 355.893 2732.2 359.66 2734.92 366.044 2738.69 375.043 2743.08 385.298 2746.85 394.089 2749.99 401.414 2716.09 407.274 2682.08 411.774 2647.97 414.913 2624.74 417.006 2613.12 427.47 2613.12 446.306 2613.12 471.63 2624.74 484.292 2647.97 484.292 2667.85 484.292 2712.01 477.909 2780.44 465.142 2789.65 484.606 2799.07 503.024 2808.69 520.395 2760.98 528.766 2723.41 534.626 2696 537.975 2688.46 538.812 2683.33 539.649 2680.61 540.487 2666.17 545.3 2658.95 555.346 2658.95 570.624 2658.95 576.275 2660.1 581.717 2662.41 586.949 2668.06 600.762 2678.52 607.669 2693.8 607.669 2709.91 607.669 2760.04 599.82 2844.17 584.123 2855.47 602.75 2866.98 620.749 2878.7 638.12 2861.54 636.655 2848.14 635.923 2838.51 635.923 2819.89 635.923 2810.58 643.038 2810.58 657.27 2810.58 671.083 2819.57 679.036 2837.57 681.129 2863.73 684.059 2887.38 687.931 2908.52 692.745 2917.31 694.628 2924.21 695.57 2929.24 695.57 2947.03 695.57 2959.27 689.187 2965.97 676.42 2969.1 670.56 2970.67 663.967 2970.67 656.642 2970.67 643.248 2964.81 629.958 2953.09 616.773 2944.51 607.145 2933.21 591.135 2919.19 568.741 2941.58 563.718 2960.84 558.695 2976.95 553.672 2993.28 548.649 3001.44 538.707 3001.44 523.848 3001.44 516.732 2999.76 509.826 2996.42 503.128 2990.35 490.152 2981.14 483.664 2968.79 483.664 2965.02 483.664 2960.11 484.606 2954.04 486.49 2936.67 491.722 2913.02 497.896 2883.09 505.012 2874.51 489.106 2865.51 471.107 2856.09 451.015 2893.56 443.69 2918.88 438.144 2932.06 434.377 2949.64 429.354 2958.43 418.785 2958.43 402.669 2958.43 397.228 2957.18 391.472 2954.66 385.403 2949.01 371.799 2939.28 364.997 2925.47 364.997 2920.24 364.997 2913.96 366.044 2906.64 368.136 2887.38 373.578 2860.91 379.752 2827.21 386.659 2815.91 361.544 2808.17 343.44 2803.98 332.348 2797.08 313.931 2785.04 304.722 2767.88 304.722ZM2683.49 28.9999 4034.51 28.9999C4145.79 28.9999 4236 119.216 4236 230.504L4236 1036.5C4236 1147.78 4145.79 1238 4034.51 1238L2683.49 1238C2572.21 1238 2482 1147.78 2482 1036.5L2482 230.504C2482 119.216 2572.21 28.9999 2683.49 28.9999Z" fill="#536471" fill-rule="evenodd"/></g></svg>