<?xml version="1.0" encoding="UTF-8"?>
<svg version="1.1" xmlns="http://www.w3.org/2000/svg" width="1644" height="908">
<path d="M0 0 C542.52 0 1085.04 0 1644 0 C1644 299.64 1644 599.28 1644 908 C1101.48 908 558.96 908 0 908 C0 608.36 0 308.72 0 0 Z " fill="#F91880" transform="translate(0,0)"/>
<path d="M0 0 C2.22679095 15.95506527 2.57490508 31.91666112 3 48 C3.69838989 47.98747192 4.39677979 47.97494385 5.11633301 47.96203613 C11.8193834 47.84217864 18.52246824 47.72443376 25.22559357 47.60884857 C28.66864534 47.54940958 32.11168101 47.4892569 35.5546875 47.42724609 C52.70484353 47.11895651 69.84693338 46.9200925 87 47 C90.01689385 58.59959188 92.57382895 70.25144385 94.9375 82 C95.45980787 84.57676182 95.98325893 87.15328981 96.50674438 89.72981262 C96.85171848 91.42828275 97.19626722 93.12683933 97.54037476 94.82548523 C99.1941375 102.98307983 100.89886063 111.12966148 102.62866211 119.27148438 C102.81307861 120.14740234 102.99749512 121.02332031 103.1875 121.92578125 C103.34605469 122.67255127 103.50460937 123.41932129 103.66796875 124.1887207 C104 126 104 126 104 128 C74.96 128.33 45.92 128.66 16 129 C20.01431874 146.13894896 20.01431874 146.13894896 25 163 C25 163.99 25 164.98 25 166 C26.20156738 165.96970703 27.40313477 165.93941406 28.64111328 165.90820312 C61.76518627 165.08831564 94.86661697 164.87039708 128 165 C130.15589746 173.99084258 132.29899848 182.96024582 133.9375 192.0625 C135.3863513 199.87455947 136.93556041 207.66055841 138.5625 215.4375 C138.77406738 216.45054199 138.98563477 217.46358398 139.20361328 218.50732422 C140.10984396 222.82733083 141.02556773 227.14445997 141.984375 231.453125 C142.25765625 232.68546875 142.5309375 233.9178125 142.8125 235.1875 C143.04582031 236.21230469 143.27914063 237.23710937 143.51953125 238.29296875 C144 241 144 241 144 246 C116.61 246 89.22 246 61 246 C67.12411103 255.79857765 73.25712271 265.50042807 79.70605469 275.07519531 C82.02320345 278.5220634 84.32286369 281.98059568 86.625 285.4375 C87.47128237 286.70707911 88.31762957 287.97661501 89.1640625 289.24609375 C89.76992188 290.15488281 90.37578125 291.06367187 91 292 C88.3904764 293.7396824 86.41598504 294.6809282 83.50830078 295.71728516 C82.59108749 296.04644928 81.67387421 296.3756134 80.72886658 296.7147522 C79.72779373 297.0692746 78.72672089 297.423797 77.6953125 297.7890625 C76.64416763 298.164935 75.59302277 298.5408075 74.51002502 298.92807007 C71.04973289 300.16429414 67.58739029 301.39466598 64.125 302.625 C61.73530878 303.47751662 59.3457428 304.33038437 56.95629883 305.18359375 C49.63952754 307.79468081 42.31997916 310.39792214 35 313 C32.73843105 313.80432553 30.47687468 314.60868644 28.21533203 315.41308594 C11.31078339 321.42499155 11.31078339 321.42499155 4.01806641 324.01025391 C3.12796371 324.32604401 2.23786102 324.64183411 1.32078552 324.9671936 C-0.31469241 325.54736499 -1.95036474 326.12698886 -3.58628845 326.7059021 C-4.31747391 326.96537628 -5.04865936 327.22485046 -5.80200195 327.4921875 C-6.50016022 327.73807617 -7.19831848 327.98396484 -7.91763306 328.23730469 C-9.34908929 328.76159507 -10.76968762 329.31620695 -12.17977905 329.89550781 C-15.93149666 331.42307432 -18.12954521 332.26411637 -22 331 C-21.60095459 330.14768799 -21.20190918 329.29537598 -20.79077148 328.41723633 C-19.31319134 325.2445116 -17.84803221 322.06664442 -16.39086914 318.88452148 C-15.75837216 317.50987311 -15.12104189 316.13743772 -14.47875977 314.76733398 C-13.55498367 312.79456041 -12.64902981 310.81441377 -11.74609375 308.83203125 C-11.19622803 307.64327393 -10.6463623 306.4545166 -10.07983398 305.22973633 C-8.93993059 301.82033502 -8.83378231 300.34757735 -10 297 C-11.36067132 294.8223444 -12.75316129 292.76639456 -14.25 290.6875 C-18.91380193 283.95809044 -22.92370337 276.95161951 -26.8125 269.75 C-27.62025879 268.26052856 -27.62025879 268.26052856 -28.44433594 266.7409668 C-31.92218459 260.2407534 -34.93086957 253.75208695 -38 247 C-103.67 246.67 -169.34 246.34 -237 246 C-237 240.82118193 -236.70337929 236.33832679 -235.78515625 231.32421875 C-235.65407471 230.58117996 -235.52299316 229.83814117 -235.38793945 229.07258606 C-234.95190515 226.60982369 -234.50726754 224.14869887 -234.0625 221.6875 C-233.75334067 219.9519091 -233.44467677 218.21622988 -233.13647461 216.48046875 C-232.28626826 211.70296523 -231.42783235 206.92697426 -230.56738281 202.15130615 C-229.97193382 198.84411737 -229.37832316 195.53660273 -228.78515625 192.22900391 C-226.20048065 177.81745833 -223.60531225 163.40782887 -221 149 C-217.7490644 149.71490681 -216.31815513 150.33991952 -214.16015625 152.9140625 C-213.65419922 153.51089844 -213.14824219 154.10773438 -212.62695312 154.72265625 C-212.11068359 155.35042969 -211.59441406 155.97820312 -211.0625 156.625 C-210.55009766 157.22957031 -210.03769531 157.83414063 -209.50976562 158.45703125 C-209.00251953 159.06160156 -208.49527344 159.66617188 -207.97265625 160.2890625 C-207.46323486 160.89588867 -206.95381348 161.50271484 -206.42895508 162.12792969 C-205 164 -205 164 -203.9050293 166.00488281 C-202.75640931 168.05786853 -201.80587554 169.48442873 -200 171 C-196.21656464 171.93926289 -192.55917333 171.69463963 -188.6875 171.5 C-187.50945801 171.4695459 -186.33141602 171.4390918 -185.11767578 171.40771484 C-182.49303956 171.33686948 -179.87186386 171.25317929 -177.24853516 171.15136719 C-172.84741991 170.98556694 -168.44637715 170.89906194 -164.04296875 170.8203125 C-143.00757892 170.42059498 -121.99136122 169.60973943 -100.97412109 168.66064453 C-89.30616415 168.14444456 -77.67931239 167.8768005 -66 168 C-66.31022095 166.71536865 -66.31022095 166.71536865 -66.62670898 165.40478516 C-67.40168075 162.18172091 -68.17065083 158.95734007 -68.93579102 155.73193359 C-69.26613357 154.34465561 -69.59875761 152.95791861 -69.93383789 151.57177734 C-70.41915803 149.56230533 -70.8958331 147.5509345 -71.37109375 145.5390625 C-71.65911865 144.33459473 -71.94714355 143.13012695 -72.24389648 141.88916016 C-73.13446636 137.30834707 -73.53565799 132.64342005 -74 128 C-121.19 128 -168.38 128 -217 128 C-217 122.82118193 -216.70337929 118.33832679 -215.78515625 113.32421875 C-215.58853394 112.20966057 -215.58853394 112.20966057 -215.38793945 111.07258606 C-214.95190515 108.60982369 -214.50726754 106.14869887 -214.0625 103.6875 C-213.75334067 101.9519091 -213.44467677 100.21622988 -213.13647461 98.48046875 C-212.28626826 93.70296523 -211.42783235 88.92697426 -210.56738281 84.15130615 C-209.97193382 80.84411737 -209.37832316 77.53660273 -208.78515625 74.22900391 C-206.20048065 59.81745833 -203.60531225 45.40782887 -201 31 C-197.46810707 31.75443664 -196.16032131 32.55690079 -193.90625 35.421875 C-193.35066406 36.11796875 -192.79507813 36.8140625 -192.22265625 37.53125 C-191.65417969 38.2634375 -191.08570313 38.995625 -190.5 39.75 C-189.93152344 40.46671875 -189.36304688 41.1834375 -188.77734375 41.921875 C-187.94396484 42.97375 -187.94396484 42.97375 -187.09375 44.046875 C-186.5469458 44.72613037 -186.0001416 45.40538574 -185.43676758 46.10522461 C-184 48 -184 48 -182.35546875 50.98828125 C-178.1916869 54.54441334 -173.07388107 53.58845585 -167.8125 53.4375 C-166.55743652 53.42009766 -165.30237305 53.40269531 -164.00927734 53.38476562 C-150.93619092 53.16843888 -137.87217126 52.41518915 -124.81787109 51.71704102 C-112.19665138 51.04987345 -99.64104065 50.75240617 -87 51 C-87 47.04 -87 43.08 -87 39 C-88.65 38.34 -90.3 37.68 -92 37 C-93.90942383 35.76660156 -93.90942383 35.76660156 -95.70703125 34.390625 C-96.37669922 33.88273437 -97.04636719 33.37484375 -97.73632812 32.8515625 C-98.42146484 32.32304687 -99.10660156 31.79453125 -99.8125 31.25 C-100.48603516 30.73695313 -101.15957031 30.22390625 -101.85351562 29.6953125 C-103.21194618 28.6605654 -104.56759688 27.62215844 -105.92041016 26.58007812 C-107.36486321 25.4825787 -108.82412082 24.40440215 -110.29443359 23.34179688 C-111.39198975 22.54612305 -111.39198975 22.54612305 -112.51171875 21.734375 C-113.18033936 21.25709961 -113.84895996 20.77982422 -114.5378418 20.28808594 C-115.26161011 19.6504834 -115.26161011 19.6504834 -116 19 C-116 18.34 -116 17.68 -116 17 C-107.69718624 15.21619713 -99.3348481 13.93434263 -90.9375 12.6875 C-89.47766562 12.46899172 -88.01786818 12.25023655 -86.55810547 12.03125 C-84.29464622 11.69177732 -82.03115433 11.35253565 -79.76751709 11.01425171 C-74.75373782 10.26480797 -69.74156971 9.50541759 -64.73046875 8.73828125 C-50.85967351 6.61635957 -36.98340421 4.53337122 -23.09539795 2.52685547 C-21.54546516 2.3025958 -19.99569726 2.07719319 -18.44610596 1.85058594 C-16.29269111 1.53615886 -14.1386544 1.22640926 -11.984375 0.91796875 C-10.75428711 0.74031982 -9.52419922 0.5626709 -8.25683594 0.37963867 C-5.4603501 0.0536615 -2.81002364 -0.07813009 0 0 Z " fill="#FEFEFE" transform="translate(363,224)"/>
<path d="M0 0 C20.26784919 18.19323835 34.24321375 43.4681167 41.59375 69.46435547 C41.83649658 70.30909424 42.07924316 71.15383301 42.3293457 72.02416992 C46.20338264 86.57613251 46.69770922 101.55362666 46.65625 116.52685547 C46.65393875 117.80127502 46.65393875 117.80127502 46.65158081 119.10144043 C46.4780931 159.49996845 33.75744184 197.52961247 10.28125 230.52685547 C9.52199219 231.59806641 8.76273438 232.66927734 7.98046875 233.77294922 C0.51816894 243.965682 -7.58606229 253.78744139 -16.71875 262.52685547 C-19.14225662 264.93078611 -21.5461333 267.34590129 -23.90234375 269.81591797 C-30.13384662 276.27421731 -36.82465869 281.75599896 -43.95605469 287.17871094 C-45.64219758 288.46830665 -47.31164484 289.77642635 -48.9765625 291.09326172 C-62.48501044 301.73665824 -76.98181863 310.62879839 -91.78027344 319.35693359 C-93.45500446 320.36767806 -95.09117617 321.44180625 -96.71875 322.52685547 C-99.98978694 322.51290648 -101.01934004 321.2423607 -103.41796875 318.97216797 C-104.42345055 317.873919 -105.41903583 316.76655391 -106.40625 315.65185547 C-106.93806885 315.0639624 -107.4698877 314.47606934 -108.01782227 313.87036133 C-111.93636199 309.50378637 -115.63810458 304.98221555 -119.30859375 300.40576172 C-122.1627784 296.99646823 -125.17153864 293.7630683 -128.21875 290.52685547 C-132.8653861 285.5916831 -137.23801249 280.53209902 -141.4765625 275.23779297 C-143.9578155 272.23781111 -146.56739307 269.37531895 -149.21875 266.52685547 C-153.45725938 261.97281343 -157.42008351 257.25720038 -161.30859375 252.40185547 C-164.64408708 248.42304981 -168.20228201 244.66232264 -171.82202148 240.94116211 C-174.44802369 238.18095635 -176.00181358 236.26323569 -176.71875 232.52685547 C-173.88533395 232.49864668 -171.0522504 232.47894883 -168.21875 232.46435547 C-167.33324463 232.45670166 -166.44773926 232.44904785 -165.53540039 232.44116211 C-160.47303111 232.42666179 -155.48023023 232.58382614 -150.43359375 232.99560547 C-136.45138991 234.52700223 -136.45138991 234.52700223 -124.19921875 228.74169922 C-123.38066406 228.01080078 -122.56210938 227.27990234 -121.71875 226.52685547 C-120.0523561 225.34740781 -118.38508588 224.16894433 -116.70117188 223.01464844 C-84.44305289 200.76918282 -56.27338464 172.51601668 -47.17675781 133.18334961 C-46.302832 128.11448672 -46.53411784 122.96992074 -46.53125 117.83935547 C-46.51900391 116.705625 -46.50675781 115.57189453 -46.49414062 114.40380859 C-46.46116011 95.33007502 -52.93165172 80.85546216 -65.84375 66.83935547 C-84.37008925 49.10609581 -111.53232207 45.93214472 -136.015625 46.25341797 C-158.28911335 46.92334719 -180.06764491 51.55267305 -201.68408203 56.59472656 C-205.79128158 57.54957273 -209.90815484 58.45739907 -214.02734375 59.35888672 C-226.10227078 62.01043219 -238.12978901 64.68447608 -249.94140625 68.36279297 C-253.21847398 69.37268561 -256.49941039 70.30054285 -259.80908203 71.19335938 C-279.90239679 76.62214326 -299.7160511 83.07961961 -319.41577148 89.78369141 C-320.47868408 90.14366211 -321.54159668 90.50363281 -322.63671875 90.87451172 C-323.57281982 91.19427979 -324.5089209 91.51404785 -325.47338867 91.84350586 C-327.71875 92.52685547 -327.71875 92.52685547 -329.71875 92.52685547 C-332.35264211 85.91113823 -334.43135136 79.18974854 -336.34375 72.33935547 C-338.90805571 63.18207821 -341.68034285 54.0979483 -344.53125 45.02685547 C-344.74399567 44.34974518 -344.95674133 43.67263489 -345.17593384 42.9750061 C-346.04270947 40.21732874 -346.90996405 37.45980296 -347.77812195 34.70256042 C-350.43036738 26.27551191 -353.04216474 17.83597987 -355.65527344 9.39672852 C-357.2222627 4.3387566 -358.7916917 -0.7181362 -360.390625 -5.76611328 C-360.63063232 -6.52537109 -360.87063965 -7.28462891 -361.11791992 -8.06689453 C-361.72332833 -9.97781928 -362.33218533 -11.88765058 -362.94140625 -13.79736328 C-363.71875 -16.47314453 -363.71875 -16.47314453 -363.71875 -18.47314453 C-359.75954439 -17.83446048 -356.44460774 -16.60443116 -352.7890625 -14.96923828 C-351.66371094 -14.47617187 -350.53835938 -13.98310547 -349.37890625 -13.47509766 C-347.02721483 -12.43437676 -344.67822848 -11.38752113 -342.33203125 -10.33447266 C-340.64013672 -9.59680664 -340.64013672 -9.59680664 -338.9140625 -8.84423828 C-337.89328613 -8.38976318 -336.87250977 -7.93528809 -335.82080078 -7.46704102 C-330.50850979 -5.76498399 -325.84510943 -6.14860027 -320.6015625 -7.86376953 C-319.67351807 -8.15920654 -318.74547363 -8.45464355 -317.78930664 -8.7590332 C-316.81727295 -9.07718994 -315.84523926 -9.39534668 -314.84375 -9.72314453 C-305.85593424 -12.56473897 -296.89603522 -14.97660336 -287.69970703 -17.02148438 C-284.35880975 -17.78321225 -281.03997318 -18.63046428 -277.71875 -19.47314453 C-270.25247572 -21.35288674 -262.77094158 -23.15716407 -255.26757812 -24.8828125 C-253.46043457 -25.30136357 -251.6545637 -25.72542695 -249.84960938 -26.15332031 C-218.8466643 -33.49173116 -187.30896742 -37.5834702 -155.71875 -41.47314453 C-154.78788574 -41.59020752 -153.85702148 -41.70727051 -152.89794922 -41.82788086 C-99.29253467 -47.95686483 -41.46949794 -35.54360093 0 0 Z " fill="#FEFEFE" transform="translate(1490.71875,336.47314453125)"/>
<path d="M0 0 C1.53918594 -0.00151062 1.53918594 -0.00151062 3.10946655 -0.00305176 C18.18941489 0.00696648 32.90091312 0.36414605 47.75 3.25 C48.87897705 3.45882813 48.87897705 3.45882813 50.03076172 3.671875 C73.80256613 8.19883974 97.11228735 17.62639815 115.75 33.25 C117.05324219 34.32701172 117.05324219 34.32701172 118.3828125 35.42578125 C140.44903846 54.4216302 154.39288936 82.46438524 157.75 111.25 C158.0687364 116.64879585 158.13930816 122.03174016 158.125 127.4375 C158.12478851 128.17756287 158.12457703 128.91762573 158.12435913 129.68011475 C158.01521852 168.19795597 145.64514451 205.5209349 120.75 235.25 C120.27804199 235.82202148 119.80608398 236.39404297 119.31982422 236.98339844 C101.47481828 258.5669655 80.21743586 275.18294103 56.75 290.25 C56.07275879 290.68715332 55.39551758 291.12430664 54.69775391 291.57470703 C52.66244388 292.87865946 50.61540444 294.16146522 48.5625 295.4375 C47.93859375 295.83662598 47.3146875 296.23575195 46.671875 296.64697266 C42.40776768 299.24643808 42.40776768 299.24643808 39.5859375 299.26171875 C37.02904606 297.85270836 35.47343805 296.08180278 33.5625 293.875 C32.78003906 292.9778125 31.99757813 292.080625 31.19140625 291.15625 C28.02553737 287.38759968 24.93495314 283.56273677 21.890625 279.6953125 C19.69704548 277.18950816 17.34540699 275.32551326 14.75 273.25 C13.30921407 271.60071444 11.91473162 269.91013653 10.5625 268.1875 C7.40893014 264.24946002 4.17093872 260.45823373 0.75 256.75 C-2.52418423 253.19329756 -5.65642433 249.57838189 -8.6875 245.8125 C-12.45907428 241.13332763 -16.42743368 236.69342786 -20.53295898 232.30883789 C-27.25 225.10998899 -27.25 225.10998899 -27.25 222.25 C-12.49947546 222.07714229 -12.49947546 222.07714229 -8.1875 222.75 C5.51141905 224.48954528 13.0109495 222.48063695 23.75 214.25 C24.90008708 213.40104903 26.05112212 212.5533807 27.203125 211.70703125 C36.56574012 204.74138589 45.41945636 197.376115 52.75 188.25 C53.68779297 187.08597656 53.68779297 187.08597656 54.64453125 185.8984375 C70.18456711 165.6075031 76.63919445 143.69492692 74.75 118.25 C73.95541169 114.18624836 72.74217252 110.86818248 70.75 107.25 C70.32589844 106.46753906 69.90179687 105.68507813 69.46484375 104.87890625 C62.84862022 93.9501582 51.93825278 85.91716493 39.5546875 82.67529297 C34.65263553 81.61507683 29.71922216 80.9118841 24.75 80.25 C23.37714844 79.97542969 23.37714844 79.97542969 21.9765625 79.6953125 C-1.92354305 76.39675072 -28.17979946 80.02330148 -51.50341797 85.60058594 C-54.78947328 86.37755546 -58.08379687 87.11394802 -61.37890625 87.8515625 C-75.0318553 90.93532171 -88.50673953 94.32490476 -101.86376953 98.52050781 C-105.25595712 99.55753017 -108.67261668 100.4996793 -112.09033203 101.44848633 C-121.20440042 103.98091565 -130.13811495 106.83921975 -139.03125 110.06616211 C-139.81886719 110.35112549 -140.60648438 110.63608887 -141.41796875 110.9296875 C-142.11172607 111.18476074 -142.8054834 111.43983398 -143.52026367 111.70263672 C-145.25 112.25 -145.25 112.25 -147.25 112.25 C-153.4209585 96.80146128 -159.02500143 81.15170793 -164.63757324 65.49450684 C-166.58918315 60.05061037 -168.54350202 54.60769022 -170.50017929 49.16561317 C-171.17103035 47.29806653 -171.83996116 45.42983044 -172.50881958 43.56156921 C-173.13504715 41.81829094 -173.13504715 41.81829094 -173.77392578 40.03979492 C-174.17629456 38.91938812 -174.57866333 37.79898132 -174.9932251 36.6446228 C-176.70506589 32.0208403 -178.55622513 27.45491587 -180.43161011 22.8952179 C-181.25 20.25 -181.25 20.25 -180.25 17.25 C-177.0486536 17.91610728 -174.4431102 19.06443193 -171.546875 20.5703125 C-170.64839844 21.02277344 -169.74992188 21.47523438 -168.82421875 21.94140625 C-166.95063504 22.89245082 -165.08329991 23.85591299 -163.22265625 24.83203125 C-157.54114538 27.66062939 -153.52408025 28.94798405 -147.25 27.25 C-146.40356934 27.05212891 -145.55713867 26.85425781 -144.68505859 26.65039062 C-141.79758788 25.95719556 -138.9309509 25.20545589 -136.0625 24.4375 C-135.03656738 24.16687744 -134.01063477 23.89625488 -132.95361328 23.61743164 C-127.8064614 22.24727661 -122.69806276 20.81407991 -117.625 19.1875 C-110.32616744 16.8638294 -102.87820151 15.19955253 -95.421875 13.46875 C-92.37792109 12.76033891 -89.34683249 12.02795327 -86.328125 11.21875 C-74.21626899 7.99585269 -61.9085698 5.91804511 -49.56054688 3.81542969 C-47.41971927 3.44978391 -45.28026151 3.07598344 -43.14257812 2.69238281 C-28.78404384 0.16539288 -14.53951199 0.00987788 0 0 Z " fill="#FEFEFE" transform="translate(828.25,355.75)"/>
<path d="M0 0 C0.99 0.495 0.99 0.495 2 1 C-0.24392998 8.00330859 -2.85300815 14.8058789 -5.65820312 21.6015625 C-8.01684355 27.13519897 -8.01684355 27.13519897 -8 33 C-2.55422661 41.45807754 5.00012233 48.03434683 13 54 C13.52577637 54.39928711 14.05155273 54.79857422 14.59326172 55.20996094 C40.19339392 74.58589556 70.00818427 86.89762448 101.31591797 93.41943359 C103.50932031 93.89386608 105.682808 94.45956888 107.84765625 95.05078125 C113.39043998 96.19297309 116.65970631 95.40912556 121.38671875 92.4296875 C125.37825256 89.68550801 129.1754232 86.72713432 132.93505859 83.67529297 C135.71802578 81.41746359 138.56094003 79.26241741 141.4375 77.125 C142.26121094 76.48820313 143.08492187 75.85140625 143.93359375 75.1953125 C144.95646484 74.60363281 144.95646484 74.60363281 146 74 C146.99 74.33 147.98 74.66 149 75 C145.77496914 89.75828273 141.96869217 104.29876789 137.66186523 118.77783203 C135.25153562 126.9560863 133.15734712 135.19030618 131.13354492 143.47143555 C129.51216473 150.06635459 127.7266182 156.58448783 125.7644043 163.08544922 C123.67440479 170.01333135 121.82444217 176.99781134 120 184 C71.01984363 186.97182971 7.51628413 161.79972402 -30 132 C-30.83273438 131.35675781 -31.66546875 130.71351563 -32.5234375 130.05078125 C-37.79991482 125.91889363 -42.80851673 121.54449562 -47.75390625 117.0234375 C-49.52725596 115.42588072 -51.31683982 113.91616508 -53.1875 112.4375 C-56.86717521 109.24844816 -59.89389656 105.74236299 -63 102 C-63.42555176 101.49742676 -63.85110352 100.99485352 -64.28955078 100.47705078 C-76.81595274 85.63821655 -86.71179542 69.53274046 -95 52 C-95.39960938 51.27683594 -95.79921875 50.55367187 -96.2109375 49.80859375 C-97 48 -97 48 -97 44 C-55.41702532 24.96960732 -55.41702532 24.96960732 -35.03775024 15.73991394 C-30.90714417 13.86821828 -26.78141435 11.98618443 -22.65856934 10.09745789 C-19.94191741 8.85458923 -17.22237442 7.61814488 -14.50213623 6.38314819 C-13.21819212 5.79854738 -11.93549359 5.21120246 -10.65411377 4.6210022 C-8.89900919 3.81304858 -7.13907838 3.01560331 -5.37890625 2.21875 C-4.3844751 1.76435547 -3.39004395 1.30996094 -2.36547852 0.84179688 C-1.58487061 0.56400391 -0.8042627 0.28621094 0 0 Z " fill="#FEFEFE" transform="translate(250,500)"/>
<path d="M0 0 C0.33 0 0.66 0 1 0 C1.14695313 1.0415625 1.29390625 2.083125 1.4453125 3.15625 C5.36926016 28.97169514 17.62491087 54.13286862 39 70 C54.26047077 80.7440032 69.64498339 86.99357487 88 90 C88 90.33 88 90.66 88 91 C58.96 91 29.92 91 0 91 C0 60.97 0 30.94 0 0 Z " fill="#000000" transform="translate(0,817)"/>
<path d="M0 0 C28.71 0 57.42 0 87 0 C87 0.33 87 0.66 87 1 C85.7625 1.22042969 85.7625 1.22042969 84.5 1.4453125 C57.05442267 6.7751456 33.31257236 20.68900992 17.42578125 44.12109375 C8.43442065 58.04608362 3.23994196 73.64252908 1 90 C0.67 90 0.34 90 0 90 C0 60.3 0 30.6 0 0 Z " fill="#000000" transform="translate(0,0)"/>
<path d="M0 0 C0.33 0 0.66 0 1 0 C1 28.38 1 56.76 1 86 C-28.04 86 -57.08 86 -87 86 C-87 85.67 -87 85.34 -87 85 C-86.07960938 84.84144531 -85.15921875 84.68289063 -84.2109375 84.51953125 C-64.94337042 80.96817724 -47.84919561 73.91115721 -33 61 C-32.401875 60.54496094 -31.80375 60.08992187 -31.1875 59.62109375 C-13.59982571 45.98250374 -3.2264687 21.45435374 0 0 Z " fill="#000000" transform="translate(1643,822)"/>
<path d="M0 0 C28.38 0 56.76 0 86 0 C86 28.05 86 56.1 86 85 C85.67 85 85.34 85 85 85 C84.70609375 83.47246094 84.70609375 83.47246094 84.40625 81.9140625 C80.96195678 65.17835569 74.53273898 50.48864086 64 37 C63.38769531 36.20464844 62.77539062 35.40929688 62.14453125 34.58984375 C46.69624126 15.91355286 23.60478317 4.80722309 0 1 C0 0.67 0 0.34 0 0 Z " fill="#000000" transform="translate(1558,0)"/>
</svg>
