<svg width="1754" height="1209" xmlns="http://www.w3.org/2000/svg" xmlns:xlink="http://www.w3.org/1999/xlink" xml:space="preserve" overflow="hidden"><defs><clipPath id="clip0"><rect x="2385" y="1252" width="1754" height="1209"/></clipPath></defs><g clip-path="url(#clip0)" transform="translate(-2385 -1252)"><rect x="2475" y="1409" width="1626" height="935" fill="#FFFFFF"/><path d="M2587.38 1927.67C2579.43 1927.67 2572.21 1929.87 2565.72 1934.27 2557.35 1940.13 2553.16 1948.5 2553.16 1959.38 2553.16 1968.59 2556.41 1979.47 2562.9 1992.03 2575.45 2016.94 2596.07 2036.82 2624.74 2051.68 2663.45 2071.98 2713.16 2082.13 2773.85 2082.13 2806.5 2082.13 2822.82 2069.47 2822.82 2044.14 2822.82 2017.56 2807.23 2004.27 2776.05 2004.27 2737.54 2004.27 2706.46 2001.13 2682.81 1994.86 2651.63 1986.48 2629.97 1971 2617.83 1948.39 2610.3 1934.58 2600.15 1927.67 2587.38 1927.67ZM3291.07 1754.38C3266.79 1754.38 3225.46 1759.93 3167.07 1771.02 3107.85 1782.74 3071.01 1789.54 3056.57 1791.43 3030.62 1794.57 3017.65 1805.45 3017.65 1824.08 3017.65 1836.21 3021.31 1845.63 3028.64 1852.33 3034.29 1857.77 3041.51 1860.49 3050.3 1860.49 3059.29 1860.49 3099.16 1852.33 3169.9 1836.01 3223.68 1823.66 3262.92 1817.48 3287.62 1817.48 3307.29 1817.48 3322.78 1822.61 3334.08 1832.87 3345.59 1843.33 3351.34 1857.77 3351.34 1876.19 3351.34 1924.33 3315.77 1960.11 3244.61 1983.55 3228.08 1989 3218.24 1992.76 3215.1 1994.86 3207.36 2000.3 3203.49 2007.41 3203.49 2016.2 3203.49 2033.37 3212.8 2041.95 3231.43 2041.95 3234.78 2041.95 3239.8 2041.32 3246.49 2040.06 3273.28 2035.25 3297.98 2027.92 3320.58 2018.09 3390.48 1987.95 3425.43 1939.71 3425.43 1873.36 3425.43 1832.97 3409.21 1801.58 3376.77 1779.18 3352.7 1762.65 3324.14 1754.38 3291.07 1754.38ZM3863.07 1648.27C3832.72 1648.27 3777.16 1655.6 3696.38 1670.25 3625.85 1682.81 3577.82 1691.18 3552.29 1695.36 3539.94 1697.46 3531.36 1699.65 3526.55 1701.96 3513.15 1708.44 3506.46 1719.74 3506.46 1735.86 3506.46 1741.93 3507.29 1747.37 3508.97 1752.18 3514.41 1768.3 3525.29 1776.36 3541.61 1776.36 3545.8 1776.36 3569.87 1771.54 3613.82 1761.92L3695.43 1744.96C3772.03 1728.85 3825.81 1720.79 3856.79 1720.79 3881.06 1720.79 3900.95 1726.97 3916.43 1739.31 3935.27 1754.17 3944.69 1775.52 3944.69 1803.36 3944.69 1870.33 3896.24 1918.67 3799.34 1948.39 3778.83 1954.67 3767.01 1958.75 3763.87 1960.64 3754.66 1966.5 3750.06 1974.24 3750.06 1983.87 3750.06 1988.89 3751.31 1994.02 3753.82 1999.25 3758.85 2010.13 3768.58 2015.58 3783.02 2015.58 3790.76 2015.58 3803 2013.69 3819.75 2009.92 3881.9 1996.32 3930.98 1973.3 3966.97 1940.86 4009.04 1902.98 4030.07 1856.2 4030.07 1800.53 4030.07 1749.46 4009.56 1709.39 3968.54 1680.29 3938.62 1658.95 3903.46 1648.27 3863.07 1648.27ZM2670.88 1527.72C2662.72 1527.72 2654.66 1529.71 2646.71 1533.69 2634.57 1539.97 2628.5 1548.76 2628.5 1560.06 2628.5 1565.08 2630.18 1571.36 2633.53 1578.89 2635.2 1582.66 2637.92 1589.04 2641.69 1598.04 2646.08 1608.3 2649.85 1617.09 2652.99 1624.41 2619.09 1630.27 2585.08 1634.77 2550.97 1637.91 2527.74 1640.01 2516.12 1650.47 2516.12 1669.31 2516.12 1694.63 2527.74 1707.29 2550.97 1707.29 2570.85 1707.29 2615.01 1700.91 2683.44 1688.14 2692.65 1707.61 2702.07 1726.02 2711.69 1743.39 2663.98 1751.77 2626.41 1757.63 2599 1760.98 2591.46 1761.81 2586.33 1762.65 2583.61 1763.49 2569.17 1768.3 2561.95 1778.35 2561.95 1793.62 2561.95 1799.28 2563.1 1804.72 2565.41 1809.95 2571.06 1823.76 2581.52 1830.67 2596.8 1830.67 2612.91 1830.67 2663.04 1822.82 2747.17 1807.12 2758.47 1825.75 2769.98 1843.75 2781.7 1861.12 2764.54 1859.66 2751.14 1858.92 2741.51 1858.92 2722.89 1858.92 2713.58 1866.04 2713.58 1880.27 2713.58 1894.08 2722.58 1902.04 2740.57 1904.13 2766.73 1907.06 2790.38 1910.93 2811.52 1915.74 2820.31 1917.63 2827.21 1918.57 2832.24 1918.57 2850.03 1918.57 2862.27 1912.19 2868.97 1899.42 2872.1 1893.56 2873.67 1886.97 2873.67 1879.64 2873.67 1866.25 2867.81 1852.96 2856.1 1839.77 2847.51 1830.15 2836.21 1814.13 2822.19 1791.74 2844.58 1786.72 2863.84 1781.69 2879.95 1776.67 2896.28 1771.65 2904.44 1761.71 2904.44 1746.85 2904.44 1739.73 2902.76 1732.83 2899.42 1726.13 2893.35 1713.15 2884.14 1706.66 2871.79 1706.66 2868.02 1706.66 2863.11 1707.61 2857.04 1709.49 2839.67 1714.72 2816.02 1720.9 2786.09 1728.01 2777.51 1712.11 2768.51 1694.11 2759.09 1674.02 2796.56 1666.69 2821.88 1661.14 2835.06 1657.38 2852.64 1652.35 2861.43 1641.78 2861.43 1625.67 2861.43 1620.23 2860.18 1614.47 2857.66 1608.4 2852.01 1594.8 2842.28 1588 2828.47 1588 2823.24 1588 2816.96 1589.04 2809.64 1591.14 2790.38 1596.58 2763.91 1602.75 2730.21 1609.66 2718.91 1584.54 2711.17 1566.44 2706.98 1555.35 2700.08 1536.93 2688.04 1527.72 2670.88 1527.72ZM2586.49 1252 3937.51 1252C4048.79 1252 4139 1342.22 4139 1453.5L4139 2259.5C4139 2370.78 4048.79 2461 3937.51 2461L2586.49 2461C2475.21 2461 2385 2370.78 2385 2259.5L2385 1453.5C2385 1342.22 2475.21 1252 2586.49 1252Z" fill="#E8E8E8" fill-rule="evenodd"/></g></svg>