<svg width="1754" height="1209" xmlns="http://www.w3.org/2000/svg" xmlns:xlink="http://www.w3.org/1999/xlink" xml:space="preserve" overflow="hidden"><defs><clipPath id="clip0"><rect x="341" y="445" width="1754" height="1209"/></clipPath></defs><g clip-path="url(#clip0)" transform="translate(-341 -445)"><rect x="425" y="582" width="1626" height="935" fill="#FFFFFF"/><path d="M543.381 1120.67C535.428 1120.67 528.209 1122.87 521.721 1127.27 513.35 1133.13 509.164 1141.5 509.164 1152.38 509.164 1161.59 512.408 1172.47 518.896 1185.03 531.452 1209.94 552.066 1229.82 580.737 1244.68 619.454 1264.98 669.158 1275.13 729.848 1275.13 762.496 1275.13 778.82 1262.47 778.82 1237.14 778.82 1210.56 763.228 1197.27 732.046 1197.27 693.538 1197.27 662.461 1194.13 638.812 1187.86 607.63 1179.48 585.969 1164 573.831 1141.39 566.297 1127.58 556.147 1120.67 543.381 1120.67ZM1247.07 947.383C1222.79 947.383 1181.46 952.929 1123.07 964.021 1063.85 975.741 1027.01 982.543 1012.57 984.427 986.624 987.566 973.649 998.45 973.649 1017.08 973.649 1029.22 977.311 1038.63 984.636 1045.33 990.286 1050.77 997.506 1053.49 1006.3 1053.49 1015.29 1053.49 1055.16 1045.33 1125.9 1029.01 1179.68 1016.66 1218.92 1010.48 1243.62 1010.48 1263.29 1010.48 1278.78 1015.61 1290.08 1025.87 1301.59 1036.33 1307.34 1050.77 1307.34 1069.19 1307.34 1117.33 1271.77 1153.11 1200.61 1176.55 1184.08 1182 1174.24 1185.76 1171.1 1187.86 1163.36 1193.3 1159.49 1200.41 1159.49 1209.2 1159.49 1226.37 1168.8 1234.95 1187.43 1234.95 1190.78 1234.95 1195.8 1234.32 1202.49 1233.06 1229.28 1228.25 1253.98 1220.92 1276.58 1211.09 1346.48 1180.95 1381.43 1132.71 1381.43 1066.36 1381.43 1025.97 1365.21 994.578 1332.77 972.183 1308.7 955.65 1280.14 947.383 1247.07 947.383ZM1819.07 841.273C1788.72 841.273 1733.16 848.598 1652.38 863.248 1581.85 875.806 1533.82 884.177 1508.29 888.363 1495.94 890.456 1487.36 892.654 1482.55 894.956 1469.15 901.444 1462.46 912.745 1462.46 928.861 1462.46 934.93 1463.29 940.371 1464.97 945.185 1470.41 961.3 1481.29 969.358 1497.61 969.358 1501.8 969.358 1525.87 964.544 1569.82 954.917L1651.43 937.965C1728.03 921.849 1781.82 913.792 1812.79 913.792 1837.06 913.792 1856.95 919.966 1872.43 932.314 1891.27 947.173 1900.69 968.521 1900.69 996.356 1900.69 1063.33 1852.24 1111.68 1755.34 1141.39 1734.83 1147.67 1723.01 1151.75 1719.87 1153.64 1710.66 1159.5 1706.06 1167.24 1706.06 1176.87 1706.06 1181.89 1707.31 1187.02 1709.82 1192.25 1714.85 1203.13 1724.58 1208.58 1739.02 1208.58 1746.76 1208.58 1759 1206.69 1775.75 1202.93 1837.9 1189.32 1886.98 1166.3 1922.97 1133.86 1965.04 1095.98 1986.07 1049.2 1986.07 993.531 1986.07 942.464 1965.56 902.385 1924.54 873.294 1894.62 851.947 1859.46 841.273 1819.07 841.273ZM626.883 720.722C618.721 720.722 610.664 722.71 602.712 726.687 590.573 732.966 584.505 741.756 584.505 753.057 584.505 758.08 586.179 764.359 589.527 771.894 591.201 775.661 593.922 782.044 597.689 791.043 602.084 801.299 605.851 810.089 608.99 817.414 575.087 823.274 541.079 827.774 506.967 830.913 483.737 833.006 472.122 843.47 472.122 862.306 472.122 887.63 483.737 900.293 506.967 900.293 526.848 900.293 571.006 893.909 639.44 881.143 648.648 900.607 658.066 919.024 667.693 936.395 619.977 944.766 582.411 950.627 554.996 953.975 547.462 954.812 542.335 955.65 539.614 956.487 525.174 961.3 517.954 971.346 517.954 986.624 517.954 992.275 519.105 997.717 521.407 1002.95 527.057 1016.76 537.521 1023.67 552.799 1023.67 568.913 1023.67 619.035 1015.82 703.166 1000.12 714.466 1018.75 725.977 1036.75 737.696 1054.12 720.536 1052.66 707.142 1051.92 697.515 1051.92 678.889 1051.92 669.576 1059.04 669.576 1073.27 669.576 1087.08 678.575 1095.04 696.573 1097.13 722.733 1100.06 746.381 1103.93 767.519 1108.74 776.308 1110.63 783.215 1111.57 788.237 1111.57 806.026 1111.57 818.269 1105.19 824.966 1092.42 828.105 1086.56 829.675 1079.97 829.675 1072.64 829.675 1059.25 823.815 1045.96 812.095 1032.77 803.514 1023.15 792.214 1007.14 778.192 984.741 800.585 979.718 819.838 974.695 835.953 969.672 852.276 964.649 860.438 954.708 860.438 939.848 860.438 932.732 858.764 925.826 855.416 919.129 849.346 906.153 840.138 899.665 827.791 899.665 824.024 899.665 819.106 900.607 813.037 902.49 795.666 907.722 772.018 913.896 742.091 921.012 733.511 905.106 724.512 887.107 715.094 867.016 752.555 859.69 777.878 854.144 791.063 850.377 808.642 845.354 817.432 834.785 817.432 818.67 817.432 813.228 816.176 807.473 813.665 801.403 808.014 787.799 798.283 780.997 784.47 780.997 779.238 780.997 772.96 782.044 765.635 784.137 746.381 789.578 719.908 795.753 686.214 802.659 674.913 777.544 667.169 759.441 662.984 748.348 656.078 729.931 644.044 720.722 626.883 720.722ZM542.494 445 1893.51 445C2004.79 445 2095 535.217 2095 646.504L2095 1452.5C2095 1563.78 2004.79 1654 1893.51 1654L542.494 1654C431.212 1654 341 1563.78 341 1452.5L341 646.504C341 535.217 431.212 445 542.494 445Z" fill="#F91880" fill-rule="evenodd"/></g></svg>