<svg width="1754" height="1209" xmlns="http://www.w3.org/2000/svg" xmlns:xlink="http://www.w3.org/1999/xlink" xml:space="preserve" overflow="hidden"><defs><clipPath id="clip0"><rect x="2453" y="445" width="1754" height="1209"/></clipPath></defs><g clip-path="url(#clip0)" transform="translate(-2453 -445)"><rect x="2542" y="602" width="1627" height="935" fill="#FFFFFF"/><path d="M2655.38 1120.67C2647.43 1120.67 2640.21 1122.87 2633.72 1127.27 2625.35 1133.13 2621.16 1141.5 2621.16 1152.38 2621.16 1161.59 2624.41 1172.47 2630.9 1185.03 2643.45 1209.94 2664.07 1229.82 2692.74 1244.68 2731.45 1264.98 2781.16 1275.13 2841.85 1275.13 2874.5 1275.13 2890.82 1262.47 2890.82 1237.14 2890.82 1210.56 2875.23 1197.27 2844.05 1197.27 2805.54 1197.27 2774.46 1194.13 2750.81 1187.86 2719.63 1179.48 2697.97 1164 2685.83 1141.39 2678.3 1127.58 2668.15 1120.67 2655.38 1120.67ZM3359.07 947.383C3334.79 947.383 3293.46 952.929 3235.07 964.021 3175.85 975.741 3139.01 982.543 3124.57 984.427 3098.62 987.566 3085.65 998.45 3085.65 1017.08 3085.65 1029.22 3089.31 1038.63 3096.64 1045.33 3102.29 1050.77 3109.51 1053.49 3118.3 1053.49 3127.29 1053.49 3167.16 1045.33 3237.9 1029.01 3291.68 1016.66 3330.92 1010.48 3355.62 1010.48 3375.29 1010.48 3390.78 1015.61 3402.08 1025.87 3413.59 1036.33 3419.34 1050.77 3419.34 1069.19 3419.34 1117.33 3383.77 1153.11 3312.61 1176.55 3296.08 1182 3286.24 1185.76 3283.1 1187.86 3275.36 1193.3 3271.49 1200.41 3271.49 1209.2 3271.49 1226.37 3280.8 1234.95 3299.43 1234.95 3302.78 1234.95 3307.8 1234.32 3314.49 1233.06 3341.28 1228.25 3365.98 1220.92 3388.58 1211.09 3458.48 1180.95 3493.43 1132.71 3493.43 1066.36 3493.43 1025.97 3477.21 994.578 3444.77 972.183 3420.7 955.65 3392.14 947.383 3359.07 947.383ZM3931.07 841.273C3900.72 841.273 3845.16 848.598 3764.38 863.248 3693.85 875.806 3645.82 884.177 3620.29 888.363 3607.94 890.456 3599.36 892.654 3594.55 894.956 3581.15 901.444 3574.46 912.745 3574.46 928.861 3574.46 934.93 3575.29 940.371 3576.97 945.185 3582.41 961.3 3593.29 969.358 3609.61 969.358 3613.8 969.358 3637.87 964.544 3681.82 954.917L3763.43 937.965C3840.03 921.849 3893.81 913.792 3924.79 913.792 3949.06 913.792 3968.95 919.966 3984.43 932.314 4003.27 947.173 4012.69 968.521 4012.69 996.356 4012.69 1063.33 3964.24 1111.68 3867.34 1141.39 3846.83 1147.67 3835.01 1151.75 3831.87 1153.64 3822.66 1159.5 3818.06 1167.24 3818.06 1176.87 3818.06 1181.89 3819.31 1187.02 3821.82 1192.25 3826.85 1203.13 3836.58 1208.58 3851.02 1208.58 3858.76 1208.58 3871 1206.69 3887.75 1202.93 3949.9 1189.32 3998.98 1166.3 4034.97 1133.86 4077.04 1095.98 4098.07 1049.2 4098.07 993.531 4098.07 942.464 4077.56 902.385 4036.54 873.294 4006.62 851.947 3971.46 841.273 3931.07 841.273ZM2738.88 720.722C2730.72 720.722 2722.66 722.71 2714.71 726.687 2702.57 732.966 2696.5 741.756 2696.5 753.057 2696.5 758.08 2698.18 764.359 2701.53 771.894 2703.2 775.661 2705.92 782.044 2709.69 791.043 2714.08 801.299 2717.85 810.089 2720.99 817.414 2687.09 823.274 2653.08 827.774 2618.97 830.913 2595.74 833.006 2584.12 843.47 2584.12 862.306 2584.12 887.63 2595.74 900.293 2618.97 900.293 2638.85 900.293 2683.01 893.909 2751.44 881.143 2760.65 900.607 2770.07 919.024 2779.69 936.395 2731.98 944.766 2694.41 950.627 2667 953.975 2659.46 954.812 2654.33 955.65 2651.61 956.487 2637.17 961.3 2629.95 971.346 2629.95 986.624 2629.95 992.275 2631.1 997.717 2633.41 1002.95 2639.06 1016.76 2649.52 1023.67 2664.8 1023.67 2680.91 1023.67 2731.04 1015.82 2815.17 1000.12 2826.47 1018.75 2837.98 1036.75 2849.7 1054.12 2832.54 1052.66 2819.14 1051.92 2809.51 1051.92 2790.89 1051.92 2781.58 1059.04 2781.58 1073.27 2781.58 1087.08 2790.58 1095.04 2808.57 1097.13 2834.73 1100.06 2858.38 1103.93 2879.52 1108.74 2888.31 1110.63 2895.21 1111.57 2900.24 1111.57 2918.03 1111.57 2930.27 1105.19 2936.97 1092.42 2940.1 1086.56 2941.67 1079.97 2941.67 1072.64 2941.67 1059.25 2935.81 1045.96 2924.1 1032.77 2915.51 1023.15 2904.21 1007.14 2890.19 984.741 2912.58 979.718 2931.84 974.695 2947.95 969.672 2964.28 964.649 2972.44 954.708 2972.44 939.848 2972.44 932.732 2970.76 925.826 2967.42 919.129 2961.35 906.153 2952.14 899.665 2939.79 899.665 2936.02 899.665 2931.11 900.607 2925.04 902.49 2907.67 907.722 2884.02 913.896 2854.09 921.012 2845.51 905.106 2836.51 887.107 2827.09 867.016 2864.56 859.69 2889.88 854.144 2903.06 850.377 2920.64 845.354 2929.43 834.785 2929.43 818.67 2929.43 813.228 2928.18 807.473 2925.66 801.403 2920.01 787.799 2910.28 780.997 2896.47 780.997 2891.24 780.997 2884.96 782.044 2877.64 784.137 2858.38 789.578 2831.91 795.753 2798.21 802.659 2786.91 777.544 2779.17 759.441 2774.98 748.348 2768.08 729.931 2756.04 720.722 2738.88 720.722ZM2654.49 445 4005.51 445C4116.79 445 4207 535.217 4207 646.504L4207 1452.5C4207 1563.78 4116.79 1654 4005.51 1654L2654.49 1654C2543.21 1654 2453 1563.78 2453 1452.5L2453 646.504C2453 535.217 2543.21 445 2654.49 445Z" fill="#AEAEAE" fill-rule="evenodd"/></g></svg>