<svg width="724" height="732" xmlns="http://www.w3.org/2000/svg" xmlns:xlink="http://www.w3.org/1999/xlink" xml:space="preserve" overflow="hidden"><g transform="translate(-1252 -1025)"><path d="M1885.76 1728.63 1750.81 1662.47C1582.84 1724.32 1385.42 1663 1309.86 1525.49 1234.29 1387.99 1309.21 1226.38 1477.19 1164.53 1645.16 1102.68 1842.58 1164 1918.14 1301.5 1973.92 1402.99 1948.85 1522.04 1854.79 1602.39Z" stroke="#536471" stroke-width="55" stroke-linecap="round" stroke-linejoin="round" stroke-miterlimit="10" fill="none" fill-rule="evenodd"/><path d="M1357 1048 1473.18 1155.21" stroke="#536471" stroke-width="45.8333" stroke-linecap="round" stroke-linejoin="round" stroke-miterlimit="10" fill="none" fill-rule="evenodd"/><path d="M1357 1048 1375.28 1219.67" stroke="#536471" stroke-width="45.8333" stroke-linecap="round" stroke-linejoin="round" stroke-miterlimit="10" fill="none" fill-rule="evenodd"/><path d="M0 0 116.176 107.206" stroke="#536471" stroke-width="45.8333" stroke-linecap="round" stroke-linejoin="round" stroke-miterlimit="10" fill="none" fill-rule="evenodd" transform="matrix(-1 0 0 1 1870.18 1048)"/><path d="M0 0 18.2763 171.668" stroke="#536471" stroke-width="45.8333" stroke-linecap="round" stroke-linejoin="round" stroke-miterlimit="10" fill="none" fill-rule="evenodd" transform="matrix(-1 0 0 1 1870.28 1048)"/></g></svg>