<svg width="706" height="718" xmlns="http://www.w3.org/2000/svg" xmlns:xlink="http://www.w3.org/1999/xlink" xml:space="preserve" overflow="hidden"><g transform="translate(-1304 -713)"><path d="M1928.76 1411.63 1793.81 1345.47C1625.84 1407.32 1428.42 1346 1352.86 1208.49 1277.29 1070.99 1352.21 909.383 1520.19 847.53 1688.16 785.677 1885.58 847.003 1961.15 984.505 2016.92 1086 1991.85 1205.04 1897.79 1285.39Z" stroke="#536471" stroke-width="36.6667" stroke-linecap="round" stroke-linejoin="round" stroke-miterlimit="10" fill="none" fill-rule="evenodd"/><path d="M1400.5 731.5 1516.68 838.706" stroke="#536471" stroke-width="36.6667" stroke-linecap="round" stroke-linejoin="round" stroke-miterlimit="10" fill="none" fill-rule="evenodd"/><path d="M1400.5 731.5 1418.78 903.168" stroke="#536471" stroke-width="36.6667" stroke-linecap="round" stroke-linejoin="round" stroke-miterlimit="10" fill="none" fill-rule="evenodd"/><path d="M0 0 116.176 107.206" stroke="#536471" stroke-width="36.6667" stroke-linecap="round" stroke-linejoin="round" stroke-miterlimit="10" fill="none" fill-rule="evenodd" transform="matrix(-1 0 0 1 1912.68 731.5)"/><path d="M0 0 18.2763 171.668" stroke="#536471" stroke-width="36.6667" stroke-linecap="round" stroke-linejoin="round" stroke-miterlimit="10" fill="none" fill-rule="evenodd" transform="matrix(-1 0 0 1 1911.78 731.5)"/></g></svg>