<svg width="1300" height="1299" xmlns="http://www.w3.org/2000/svg" xmlns:xlink="http://www.w3.org/1999/xlink" xml:space="preserve" overflow="hidden"><g transform="translate(-1224 -331)"><rect x="1406" y="482" width="973" height="1044" fill="#FFFFFF"/><path d="M1683.2 1179.96C1683.5 1180.01 1683.66 1180.15 1683.67 1180.4 1681.35 1208.78 1677.99 1239.67 1673.58 1273.09 1653.7 1281.01 1635.33 1286.98 1618.48 1291.02 1612.91 1267.38 1604.3 1240.5 1592.64 1210.36 1617.41 1202.63 1645.37 1193.2 1676.49 1182.08 1680.05 1180.51 1682.29 1179.8 1683.2 1179.96ZM1703.25 1116.44C1696.27 1116.87 1689.31 1121.98 1682.38 1131.78 1649.64 1144.85 1619.66 1155.92 1592.41 1164.99 1569.92 1171.72 1555.85 1175.08 1550.21 1175.08 1543.52 1175.08 1536.66 1172.74 1529.63 1168.08 1496.3 1168.08 1491.82 1183.05 1516.18 1212.99 1529.45 1252.72 1542.28 1288.72 1554.69 1320.98 1562.54 1339.28 1575.34 1352.85 1593.09 1361.7 1616.22 1361.7 1627.78 1353.54 1627.78 1337.22 1668.51 1320.76 1700.61 1313.7 1724.08 1316.05 1741.98 1307.69 1746.24 1295.83 1736.86 1280.49 1750.5 1247.81 1761.62 1216.45 1770.21 1186.39 1785.5 1176.27 1787.44 1165.13 1776.04 1152.95 1754.07 1138.35 1734 1127.62 1715.84 1120.75 1711.64 1117.62 1707.44 1116.19 1703.25 1116.44ZM1698.86 997.42C1691.36 997.131 1683.79 997.932 1676.16 999.822 1663.75 1005.98 1655.21 1012.57 1650.54 1019.59 1633.65 1028.07 1615.28 1036.71 1595.44 1045.53 1572.2 1049.15 1565.51 1059.06 1575.37 1075.27 1587.18 1081.13 1601.68 1084.06 1618.87 1084.06 1647.68 1074.46 1672.42 1067.39 1693.08 1062.83 1715.17 1057.9 1731.82 1052.66 1743.03 1047.09 1755.32 1031.34 1752.91 1018.29 1735.8 1007.94 1723.68 1001.41 1711.36 997.901 1698.86 997.42ZM1677 897.437C1671.06 906.286 1664.63 912.428 1657.72 915.864 1631.3 930.24 1607.47 941.665 1586.25 950.142 1566.78 950.142 1561.98 959.047 1571.84 976.858 1583.65 982.721 1599.33 985.652 1618.87 985.652 1654.41 973.815 1693.44 961.997 1735.97 950.198 1759.99 938.585 1761.06 923.836 1739.16 905.95 1725.03 900.275 1704.31 897.437 1677 897.437ZM2099.64 672.502C2077.92 672.502 2073.12 682.509 2085.23 702.523 2106.34 726.01 2127.44 748.264 2148.51 769.287 2195.3 789.338 2216.34 780.432 2211.63 742.57 2206.51 727.26 2198.03 711.298 2186.18 694.681 2182.63 687.587 2170.04 682.696 2148.4 680.007 2132.86 677.431 2116.6 674.929 2099.64 672.502ZM1642.69 644.385C1609.02 644.385 1600.8 656.95 1618.03 682.079 1630.59 686.261 1639.76 696.101 1645.55 711.597 1654.89 737.286 1662.91 766.318 1669.6 798.692 1604.05 820.311 1532.7 840.456 1455.53 859.126 1434.08 863.719 1431.37 874.006 1447.41 889.987 1462.13 894.916 1482.44 901.04 1508.33 908.358 1568.65 884.722 1659.15 858.939 1779.85 831.009 1812.14 820.479 1816.29 803.284 1792.3 779.424 1776.01 773.973 1758.2 768.764 1738.88 763.798 1736.3 765.207 1734.18 766.485 1732.51 767.631L1729.8 769.899 1729.8 766.633C1729.8 764.883 1729.8 762.836 1729.8 760.493 1729.8 747.088 1733.31 725.151 1740.34 694.681 1737.5 671.531 1704.95 654.765 1642.69 644.385ZM1933.61 605.738C1910.03 605.738 1904.68 617.202 1917.58 640.128 1925.27 650.434 1934.26 659.694 1944.54 667.909 1955.86 737.921 1967.39 806.104 1979.12 872.456 1932.45 887.056 1892.3 897.735 1858.66 904.494 1845.32 904.494 1830.43 904.494 1813.99 904.494 1783.39 904.494 1779.87 916.704 1803.45 941.124 1806.93 944.597 1809.23 947.472 1810.35 949.75 1812.66 1024.5 1805.6 1099 1789.16 1173.23 1770.59 1239.17 1750.73 1289.77 1729.57 1325.01 1727.11 1344.8 1736.58 1350.29 1757.99 1341.48 1782.58 1311.95 1804.39 1279.35 1823.41 1243.69 1842.47 1207.95 1860.98 1157.6 1878.96 1092.63 1891.51 1089.05 1905.99 1084.9 1922.4 1080.2 1926.81 1078.11 1929.29 1078.53 1929.85 1081.48 1925.18 1122.37 1918.21 1162.47 1908.94 1201.79 1898.78 1233.16 1890.88 1248.86 1885.23 1248.9L1845.66 1248.9C1822.08 1248.9 1817.95 1257.93 1833.27 1276.01 1857.56 1289.3 1875.85 1306.21 1888.15 1326.75 1896.48 1352.4 1914.66 1348.31 1942.69 1314.48 1954.87 1294.99 1964.81 1270.7 1972.51 1241.62 1983.83 1195.17 1996.39 1136.22 2010.18 1064.79 2022.58 1048.36 2021.46 1036.45 2006.81 1029.06 1994.41 1019.16 1979.72 1012.78 1962.75 1009.9 1948.11 1009.9 1937.74 1014.44 1931.65 1023.51 1917.11 1031.8 1901.62 1039.48 1885.18 1046.53L1884.83 1046.72 1887.76 1027.38C1890.78 1004.99 1893.22 978.734 1895.1 948.63 1893.64 947.154 1892.33 946.254 1891.16 945.927L1890.86 945.916 1898.09 943.95C1922.26 937.501 1952.43 930.324 1988.59 922.417 2008.21 1008.52 2032.02 1087.1 2060.01 1158.16 2037.06 1207.64 2009.41 1250.84 1977.05 1287.77 1969.05 1308.94 1976.49 1316.69 1999.36 1311.01 2054.62 1258.18 2084.93 1225.88 2090.27 1214.12 2125.48 1279.57 2158.72 1326.71 2189.99 1355.54 2236.33 1401.84 2271.62 1424.99 2295.88 1424.99 2319.46 1424.99 2331.25 1411.77 2331.25 1385.34 2324.07 1370.96 2319.38 1353.9 2317.18 1334.14L2317.18 1294.71C2317.18 1269.14 2319.53 1243.31 2324.24 1217.25 2316.99 1200.82 2306.3 1200.54 2292.18 1216.41 2280.44 1244.49 2268.71 1269.23 2256.98 1290.62 2253.57 1297.12 2251.46 1299.59 2250.64 1298.02 2243.73 1297.12 2227.87 1283.17 2203.05 1256.18 2179.96 1233.06 2155.88 1197.24 2130.8 1148.7 2151.09 1120.54 2171.79 1080.7 2192.91 1029.17 2203.07 1015.69 2206.75 1003.89 2203.95 993.773 2185.71 970.324 2160.62 954.623 2128.67 946.669 2104.01 946.669 2099.88 959.887 2116.28 986.324 2116.28 1006.08 2109.58 1038.52 2096.16 1083.67 2077.03 1015.67 2062.77 957.385 2053.39 908.806 2095.51 896.447 2140.01 885.581 2186.91 876.209 2222.19 862.841 2224.02 844.526 2192.4 821.264 2173.98 815.961 2153.43 812.059 2130.74 809.557 2114.3 809.557 2100.98 817.193 2090.78 832.465 2070.64 838.514 2055.11 843.742 2044.2 848.148 2038.48 817.679 2033.34 772.647 2028.78 713.053 2028.78 697.818 2028.78 684.693 2028.78 673.678 2038.16 662.177 2038.28 650.789 2029.12 639.512 2006.59 616.996 1986.46 605.738 1968.75 605.738ZM1452.48 331 2295.53 331C2421.71 331 2524 433.213 2524 559.299L2524 1401.7C2524 1527.79 2421.71 1630 2295.53 1630L1452.48 1630C1326.29 1630 1224 1527.79 1224 1401.7L1224 559.299C1224 433.213 1326.29 331 1452.48 331Z" fill="#1D9BF0" fill-rule="evenodd"/></g></svg>