<svg width="1342" height="956" xmlns="http://www.w3.org/2000/svg" xmlns:xlink="http://www.w3.org/1999/xlink" xml:space="preserve" overflow="hidden"><g transform="translate(-2398 -441)"><path d="M2425.5 919C2425.5 670.196 2566.98 468.5 2741.5 468.5 2916.02 468.5 3057.5 670.196 3057.5 919 3057.5 1167.8 2916.02 1369.5 2741.5 1369.5 2566.98 1369.5 2425.5 1167.8 2425.5 919Z" stroke="#536471" stroke-width="55" stroke-miterlimit="8" fill="#FFFFFF" fill-rule="evenodd"/><path d="M2442 919C2442 821.798 2504.68 743 2582 743 2659.32 743 2722 821.798 2722 919 2722 1016.2 2659.32 1095 2582 1095 2504.68 1095 2442 1016.2 2442 919Z" stroke="#536471" stroke-width="37.8125" stroke-miterlimit="8" fill="#536471" fill-rule="evenodd"/><path d="M2513 858C2513 815.474 2549.04 781 2593.5 781 2637.96 781 2674 815.474 2674 858 2674 900.526 2637.96 935 2593.5 935 2549.04 935 2513 900.526 2513 858Z" fill="#FFFFFF" fill-rule="evenodd"/><path d="M3080.5 919C3080.5 670.196 3221.98 468.5 3396.5 468.5 3571.02 468.5 3712.5 670.196 3712.5 919 3712.5 1167.8 3571.02 1369.5 3396.5 1369.5 3221.98 1369.5 3080.5 1167.8 3080.5 919Z" stroke="#536471" stroke-width="55" stroke-miterlimit="8" fill="#FFFFFF" fill-rule="evenodd"/><path d="M3097 919C3097 821.798 3159.68 743 3237 743 3314.32 743 3377 821.798 3377 919 3377 1016.2 3314.32 1095 3237 1095 3159.68 1095 3097 1016.2 3097 919Z" stroke="#536471" stroke-width="37.8125" stroke-miterlimit="8" fill="#536471" fill-rule="evenodd"/><path d="M3168 858C3168 815.474 3204.04 781 3248.5 781 3292.96 781 3329 815.474 3329 858 3329 900.526 3292.96 935 3248.5 935 3204.04 935 3168 900.526 3168 858Z" fill="#FFFFFF" fill-rule="evenodd"/></g></svg>