<svg width="1378" height="939" xmlns="http://www.w3.org/2000/svg" xmlns:xlink="http://www.w3.org/1999/xlink" xml:space="preserve" overflow="hidden"><g transform="translate(-2406 -449)"><path d="M2425 918.5C2425 669.696 2566.48 468 2741 468 2915.52 468 3057 669.696 3057 918.5 3057 1167.3 2915.52 1369 2741 1369 2566.48 1369 2425 1167.3 2425 918.5Z" stroke="#536471" stroke-width="37.8125" stroke-miterlimit="8" fill="#FFFFFF" fill-rule="evenodd"/><path d="M2442 919C2442 821.798 2504.68 743 2582 743 2659.32 743 2722 821.798 2722 919 2722 1016.2 2659.32 1095 2582 1095 2504.68 1095 2442 1016.2 2442 919Z" stroke="#536471" stroke-width="37.8125" stroke-miterlimit="8" fill="#536471" fill-rule="evenodd"/><path d="M2495 858C2495 815.474 2531.04 781 2575.5 781 2619.96 781 2656 815.474 2656 858 2656 900.526 2619.96 935 2575.5 935 2531.04 935 2495 900.526 2495 858Z" fill="#FFFFFF" fill-rule="evenodd"/><path d="M3133 918.5C3133 669.696 3274.48 468 3449 468 3623.52 468 3765 669.696 3765 918.5 3765 1167.3 3623.52 1369 3449 1369 3274.48 1369 3133 1167.3 3133 918.5Z" stroke="#536471" stroke-width="37.8125" stroke-miterlimit="8" fill="#FFFFFF" fill-rule="evenodd"/><path d="M3150 919C3150 821.798 3212.68 743 3290 743 3367.32 743 3430 821.798 3430 919 3430 1016.2 3367.32 1095 3290 1095 3212.68 1095 3150 1016.2 3150 919Z" stroke="#536471" stroke-width="37.8125" stroke-miterlimit="8" fill="#536471" fill-rule="evenodd"/><path d="M3203 858C3203 815.474 3239.04 781 3283.5 781 3327.96 781 3364 815.474 3364 858 3364 900.526 3327.96 935 3283.5 935 3239.04 935 3203 900.526 3203 858Z" fill="#FFFFFF" fill-rule="evenodd"/></g></svg>